# xmcd
#
# Track frame offsets: 
#        162
#        21817
#        44952
#        69770
#        91282
#        112025
#        133430
#        157380
#        181532
#        201867
#        226277
#        248435
#        271195
#
# Disc length: 3866 seconds
#
# Revision: 13
# Processed by: cddbd v1.5.2PL0 Copyright (c) Steve Scherf et al.
# Submitted via: ExactAudioCopyFreeDBPlugin 1.0
#
DISCID=b40f180d
DTITLE=宇多田ヒカル - Distance
DYEAR=2001
DGENRE=R&B
TTITLE0=Wait and See 〜リスク〜
TTITLE1=Can You Keep A Secret?
TTITLE2=DISTANCE
TTITLE3=サングラス
TTITLE4=ドラマ
TTITLE5=Eternally
TTITLE6=Addicted To You [UP-IN-HEAVEN MIX]
TTITLE7=For You
TTITLE8=蹴っ飛ばせ!
TTITLE9=Parody
TTITLE10=タイム・リミット
TTITLE11=言葉にならない気持ち
TTITLE12=HAYATOCHI-REMIX
EXTD=YEAR: 2001
EXTT0=
EXTT1=
EXTT2=
EXTT3=
EXTT4=
EXTT5=
EXTT6=
EXTT7=
EXTT8=
EXTT9=
EXTT10=
EXTT11=
EXTT12=
PLAYORDER=
